<?xml version="1.0" encoding="UTF-8" standalone="no"?>
<!-- Uploaded to: SVG Repo, www.svgrepo.com, Generator: SVG Repo Mixer Tools -->

<svg
   height="800px"
   width="800px"
   version="1.1"
   id="Capa_1"
   viewBox="0 0 27.02 27.02"
   xml:space="preserve"
   sodipodi:docname="home-page-svgrepo-com.svg"
   inkscape:version="1.4 (e7c3feb100, 2024-10-09)"
   xmlns:inkscape="http://www.inkscape.org/namespaces/inkscape"
   xmlns:sodipodi="http://sodipodi.sourceforge.net/DTD/sodipodi-0.dtd"
   xmlns="http://www.w3.org/2000/svg"
   xmlns:svg="http://www.w3.org/2000/svg"><defs
   id="defs2" /><sodipodi:namedview
   id="namedview2"
   pagecolor="#ffffff"
   bordercolor="#000000"
   borderopacity="0.25"
   inkscape:showpageshadow="2"
   inkscape:pageopacity="0.0"
   inkscape:pagecheckerboard="0"
   inkscape:deskcolor="#d1d1d1"
   inkscape:zoom="0.91125"
   inkscape:cx="400"
   inkscape:cy="400"
   inkscape:window-width="1195"
   inkscape:window-height="982"
   inkscape:window-x="0"
   inkscape:window-y="0"
   inkscape:window-maximized="0"
   inkscape:current-layer="Capa_1" />
<g
   id="g2"
   style="fill:#ffffff">
	<path
   style="fill:#ffffff"
   d="M3.674,24.876c0,0-0.024,0.604,0.566,0.604c0.734,0,6.811-0.008,6.811-0.008l0.01-5.581   c0,0-0.096-0.92,0.797-0.92h2.826c1.056,0,0.991,0.92,0.991,0.92l-0.012,5.563c0,0,5.762,0,6.667,0   c0.749,0,0.715-0.752,0.715-0.752V14.413l-9.396-8.358l-9.975,8.358C3.674,14.413,3.674,24.876,3.674,24.876z"
   id="path1" />
	<path
   style="fill:#ffffff"
   d="M0,13.635c0,0,0.847,1.561,2.694,0l11.038-9.338l10.349,9.28c2.138,1.542,2.939,0,2.939,0   L13.732,1.54L0,13.635z"
   id="path2" />
	<polygon
   style="fill:#ffffff"
   points="23.83,4.275 21.168,4.275 21.179,7.503 23.83,9.752  "
   id="polygon2" />
</g>
</svg>
